<svg id="visual" viewBox="0 0 960 540" width="960" height="540" xmlns="http://www.w3.org/2000/svg" xmlns:xlink="http://www.w3.org/1999/xlink" version="1.1"><path d="M0 44L26.7 42.2C53.3 40.3 106.7 36.7 160 34C213.3 31.3 266.7 29.7 320 28.8C373.3 28 426.7 28 480 28C533.3 28 586.7 28 640 28.8C693.3 29.7 746.7 31.3 800 30.5C853.3 29.7 906.7 26.3 933.3 24.7L960 23L960 0L933.3 0C906.7 0 853.3 0 800 0C746.7 0 693.3 0 640 0C586.7 0 533.3 0 480 0C426.7 0 373.3 0 320 0C266.7 0 213.3 0 160 0C106.7 0 53.3 0 26.7 0L0 0Z" fill="#cee3dd"></path><path d="M0 87L26.7 85.3C53.3 83.7 106.7 80.3 160 77.7C213.3 75 266.7 73 320 69.3C373.3 65.7 426.7 60.3 480 63C533.3 65.7 586.7 76.3 640 78.2C693.3 80 746.7 73 800 69.5C853.3 66 906.7 66 933.3 66L960 66L960 21L933.3 22.7C906.7 24.3 853.3 27.7 800 28.5C746.7 29.3 693.3 27.7 640 26.8C586.7 26 533.3 26 480 26C426.7 26 373.3 26 320 26.8C266.7 27.7 213.3 29.3 160 32C106.7 34.7 53.3 38.3 26.7 40.2L0 42Z" fill="#c8e0da"></path><path d="M0 147L26.7 143.3C53.3 139.7 106.7 132.3 160 125.2C213.3 118 266.7 111 320 104.7C373.3 98.3 426.7 92.7 480 98.8C533.3 105 586.7 123 640 127.5C693.3 132 746.7 123 800 117.7C853.3 112.3 906.7 110.7 933.3 109.8L960 109L960 64L933.3 64C906.7 64 853.3 64 800 67.5C746.7 71 693.3 78 640 76.2C586.7 74.3 533.3 63.7 480 61C426.7 58.3 373.3 63.7 320 67.3C266.7 71 213.3 73 160 75.7C106.7 78.3 53.3 81.7 26.7 83.3L0 85Z" fill="#c2ddd7"></path><path d="M0 222L26.7 223C53.3 224 106.7 226 160 227.8C213.3 229.7 266.7 231.3 320 234C373.3 236.7 426.7 240.3 480 242.2C533.3 244 586.7 244 640 246.7C693.3 249.3 746.7 254.7 800 246.5C853.3 238.3 906.7 216.7 933.3 205.8L960 195L960 107L933.3 107.8C906.7 108.7 853.3 110.3 800 115.7C746.7 121 693.3 130 640 125.5C586.7 121 533.3 103 480 96.8C426.7 90.7 373.3 96.3 320 102.7C266.7 109 213.3 116 160 123.2C106.7 130.3 53.3 137.7 26.7 141.3L0 145Z" fill="#bcd9d4"></path><path d="M0 239L26.7 239.8C53.3 240.7 106.7 242.3 160 246.8C213.3 251.3 266.7 258.7 320 262.3C373.3 266 426.7 266 480 266.8C533.3 267.7 586.7 269.3 640 273.8C693.3 278.3 746.7 285.7 800 276.7C853.3 267.7 906.7 242.3 933.3 229.7L960 217L960 193L933.3 203.8C906.7 214.7 853.3 236.3 800 244.5C746.7 252.7 693.3 247.3 640 244.7C586.7 242 533.3 242 480 240.2C426.7 238.3 373.3 234.7 320 232C266.7 229.3 213.3 227.7 160 225.8C106.7 224 53.3 222 26.7 221L0 220Z" fill="#b6d6d1"></path><path d="M0 384L26.7 390.3C53.3 396.7 106.7 409.3 160 411.2C213.3 413 266.7 404 320 392.3C373.3 380.7 426.7 366.3 480 364.5C533.3 362.7 586.7 373.3 640 379.7C693.3 386 746.7 388 800 385.3C853.3 382.7 906.7 375.3 933.3 371.7L960 368L960 215L933.3 227.7C906.7 240.3 853.3 265.7 800 274.7C746.7 283.7 693.3 276.3 640 271.8C586.7 267.3 533.3 265.7 480 264.8C426.7 264 373.3 264 320 260.3C266.7 256.7 213.3 249.3 160 244.8C106.7 240.3 53.3 238.7 26.7 237.8L0 237Z" fill="#accec9"></path><path d="M0 444L26.7 448.5C53.3 453 106.7 462 160 462C213.3 462 266.7 453 320 450.3C373.3 447.7 426.7 451.3 480 454C533.3 456.7 586.7 458.3 640 462.8C693.3 467.3 746.7 474.7 800 474.7C853.3 474.7 906.7 467.3 933.3 463.7L960 460L960 366L933.3 369.7C906.7 373.3 853.3 380.7 800 383.3C746.7 386 693.3 384 640 377.7C586.7 371.3 533.3 360.7 480 362.5C426.7 364.3 373.3 378.7 320 390.3C266.7 402 213.3 411 160 409.2C106.7 407.3 53.3 394.7 26.7 388.3L0 382Z" fill="#a3c7c1"></path><path d="M0 487L26.7 488.8C53.3 490.7 106.7 494.3 160 494.3C213.3 494.3 266.7 490.7 320 491.5C373.3 492.3 426.7 497.7 480 501.3C533.3 505 586.7 507 640 507C693.3 507 746.7 505 800 501.3C853.3 497.7 906.7 492.3 933.3 489.7L960 487L960 458L933.3 461.7C906.7 465.3 853.3 472.7 800 472.7C746.7 472.7 693.3 465.3 640 460.8C586.7 456.3 533.3 454.7 480 452C426.7 449.3 373.3 445.7 320 448.3C266.7 451 213.3 460 160 460C106.7 460 53.3 451 26.7 446.5L0 442Z" fill="#99bfba"></path><path d="M0 541L26.7 541C53.3 541 106.7 541 160 541C213.3 541 266.7 541 320 541C373.3 541 426.7 541 480 541C533.3 541 586.7 541 640 541C693.3 541 746.7 541 800 541C853.3 541 906.7 541 933.3 541L960 541L960 485L933.3 487.7C906.7 490.3 853.3 495.7 800 499.3C746.7 503 693.3 505 640 505C586.7 505 533.3 503 480 499.3C426.7 495.7 373.3 490.3 320 489.5C266.7 488.7 213.3 492.3 160 492.3C106.7 492.3 53.3 488.7 26.7 486.8L0 485Z" fill="#90b8b2"></path></svg>